<svg width="138" height="20" viewBox="0 0 138 20" fill="none" xmlns="http://www.w3.org/2000/svg">
<path d="M0 11.5684V17.3755C0 18.4277 0.878904 19.2809 1.96353 19.2809H7.2624V8.98608L0 11.5684Z" fill="url(#paint0_linear_1_2161)"/>
<path d="M7.56519 8.98608L10.1592 12.7653V19.2807L7.56519 15.8238V8.98608Z" fill="url(#paint1_linear_1_2161)"/>
<path d="M10.4626 7.31344V19.2809H17.7287L17.725 4.7312L10.4626 7.31344Z" fill="url(#paint2_linear_1_2161)"/>
<path d="M18.0273 4.73071L20.9806 9.70672V19.2807L18.0289 14.1618L18.0273 4.73071Z" fill="url(#paint3_linear_1_2161)"/>
<path d="M21.2837 2.92533V19.2808H27.5418C28.6261 19.2808 29.505 18.4278 29.505 17.3753V0L21.2837 2.92533Z" fill="url(#paint4_linear_1_2161)"/>
<path d="M42.1367 12.6543H39.8574V11.7344H42.1367C42.5781 11.7344 42.9355 11.6641 43.209 11.5234C43.4824 11.3828 43.6816 11.1875 43.8066 10.9375C43.9355 10.6875 44 10.4023 44 10.082C44 9.78906 43.9355 9.51367 43.8066 9.25586C43.6816 8.99805 43.4824 8.79102 43.209 8.63477C42.9355 8.47461 42.5781 8.39453 42.1367 8.39453H40.1211V16H38.9902V7.46875H42.1367C42.7812 7.46875 43.3262 7.58008 43.7715 7.80273C44.2168 8.02539 44.5547 8.33398 44.7852 8.72852C45.0156 9.11914 45.1309 9.56641 45.1309 10.0703C45.1309 10.6172 45.0156 11.084 44.7852 11.4707C44.5547 11.8574 44.2168 12.1523 43.7715 12.3555C43.3262 12.5547 42.7812 12.6543 42.1367 12.6543ZM46.0273 12.9004V12.7656C46.0273 12.3086 46.0938 11.8848 46.2266 11.4941C46.3594 11.0996 46.5508 10.7578 46.8008 10.4688C47.0508 10.1758 47.3535 9.94922 47.709 9.78906C48.0645 9.625 48.4629 9.54297 48.9043 9.54297C49.3496 9.54297 49.75 9.625 50.1055 9.78906C50.4648 9.94922 50.7695 10.1758 51.0195 10.4688C51.2734 10.7578 51.4668 11.0996 51.5996 11.4941C51.7324 11.8848 51.7988 12.3086 51.7988 12.7656V12.9004C51.7988 13.3574 51.7324 13.7812 51.5996 14.1719C51.4668 14.5625 51.2734 14.9043 51.0195 15.1973C50.7695 15.4863 50.4668 15.7129 50.1113 15.877C49.7598 16.0371 49.3613 16.1172 48.916 16.1172C48.4707 16.1172 48.0703 16.0371 47.7148 15.877C47.3594 15.7129 47.0547 15.4863 46.8008 15.1973C46.5508 14.9043 46.3594 14.5625 46.2266 14.1719C46.0938 13.7812 46.0273 13.3574 46.0273 12.9004ZM47.1113 12.7656V12.9004C47.1113 13.2168 47.1484 13.5156 47.2227 13.7969C47.2969 14.0742 47.4082 14.3203 47.5566 14.5352C47.709 14.75 47.8984 14.9199 48.125 15.0449C48.3516 15.166 48.6152 15.2266 48.916 15.2266C49.2129 15.2266 49.4727 15.166 49.6953 15.0449C49.9219 14.9199 50.1094 14.75 50.2578 14.5352C50.4062 14.3203 50.5176 14.0742 50.5918 13.7969C50.6699 13.5156 50.709 13.2168 50.709 12.9004V12.7656C50.709 12.4531 50.6699 12.1582 50.5918 11.8809C50.5176 11.5996 50.4043 11.3516 50.252 11.1367C50.1035 10.918 49.916 10.7461 49.6895 10.6211C49.4668 10.4961 49.2051 10.4336 48.9043 10.4336C48.6074 10.4336 48.3457 10.4961 48.1191 10.6211C47.8965 10.7461 47.709 10.918 47.5566 11.1367C47.4082 11.3516 47.2969 11.5996 47.2227 11.8809C47.1484 12.1582 47.1113 12.4531 47.1113 12.7656ZM54.7637 14.875L56.3926 9.66016H57.1074L56.9668 10.6973L55.3086 16H54.6113L54.7637 14.875ZM53.668 9.66016L55.0566 14.9336L55.1562 16H54.4238L52.584 9.66016H53.668ZM58.666 14.8926L59.9902 9.66016H61.0684L59.2285 16H58.502L58.666 14.8926ZM57.2656 9.66016L58.8594 14.7871L59.041 16H58.3496L56.6445 10.6855L56.5039 9.66016H57.2656ZM64.8125 16.1172C64.3711 16.1172 63.9707 16.043 63.6113 15.8945C63.2559 15.7422 62.9492 15.5293 62.6914 15.2559C62.4375 14.9824 62.2422 14.6582 62.1055 14.2832C61.9688 13.9082 61.9004 13.498 61.9004 13.0527V12.8066C61.9004 12.291 61.9766 11.832 62.1289 11.4297C62.2812 11.0234 62.4883 10.6797 62.75 10.3984C63.0117 10.1172 63.3086 9.9043 63.6406 9.75977C63.9727 9.61523 64.3164 9.54297 64.6719 9.54297C65.125 9.54297 65.5156 9.62109 65.8438 9.77734C66.1758 9.93359 66.4473 10.1523 66.6582 10.4336C66.8691 10.7109 67.0254 11.0391 67.127 11.418C67.2285 11.793 67.2793 12.2031 67.2793 12.6484V13.1348H62.5449V12.25H66.1953V12.168C66.1797 11.8867 66.1211 11.6133 66.0195 11.3477C65.9219 11.082 65.7656 10.8633 65.5508 10.6914C65.3359 10.5195 65.043 10.4336 64.6719 10.4336C64.4258 10.4336 64.1992 10.4863 63.9922 10.5918C63.7852 10.6934 63.6074 10.8457 63.459 11.0488C63.3105 11.252 63.1953 11.5 63.1133 11.793C63.0312 12.0859 62.9902 12.4238 62.9902 12.8066V13.0527C62.9902 13.3535 63.0312 13.6367 63.1133 13.9023C63.1992 14.1641 63.3223 14.3945 63.4824 14.5938C63.6465 14.793 63.8438 14.9492 64.0742 15.0625C64.3086 15.1758 64.5742 15.2324 64.8711 15.2324C65.2539 15.2324 65.5781 15.1543 65.8438 14.998C66.1094 14.8418 66.3418 14.6328 66.541 14.3711L67.1973 14.8926C67.0605 15.0996 66.8867 15.2969 66.6758 15.4844C66.4648 15.6719 66.2051 15.8242 65.8965 15.9414C65.5918 16.0586 65.2305 16.1172 64.8125 16.1172ZM69.6289 10.6562V16H68.5449V9.66016H69.5996L69.6289 10.6562ZM71.6094 9.625L71.6035 10.6328C71.5137 10.6133 71.4277 10.6016 71.3457 10.5977C71.2676 10.5898 71.1777 10.5859 71.0762 10.5859C70.8262 10.5859 70.6055 10.625 70.4141 10.7031C70.2227 10.7812 70.0605 10.8906 69.9277 11.0312C69.7949 11.1719 69.6895 11.3398 69.6113 11.5352C69.5371 11.7266 69.4883 11.9375 69.4648 12.168L69.1602 12.3438C69.1602 11.9609 69.1973 11.6016 69.2715 11.2656C69.3496 10.9297 69.4688 10.6328 69.6289 10.375C69.7891 10.1133 69.9922 9.91016 70.2383 9.76562C70.4883 9.61719 70.7852 9.54297 71.1289 9.54297C71.207 9.54297 71.2969 9.55273 71.3984 9.57227C71.5 9.58789 71.5703 9.60547 71.6094 9.625ZM75.125 16.1172C74.6836 16.1172 74.2832 16.043 73.9238 15.8945C73.5684 15.7422 73.2617 15.5293 73.0039 15.2559C72.75 14.9824 72.5547 14.6582 72.418 14.2832C72.2812 13.9082 72.2129 13.498 72.2129 13.0527V12.8066C72.2129 12.291 72.2891 11.832 72.4414 11.4297C72.5938 11.0234 72.8008 10.6797 73.0625 10.3984C73.3242 10.1172 73.6211 9.9043 73.9531 9.75977C74.2852 9.61523 74.6289 9.54297 74.9844 9.54297C75.4375 9.54297 75.8281 9.62109 76.1562 9.77734C76.4883 9.93359 76.7598 10.1523 76.9707 10.4336C77.1816 10.7109 77.3379 11.0391 77.4395 11.418C77.541 11.793 77.5918 12.2031 77.5918 12.6484V13.1348H72.8574V12.25H76.5078V12.168C76.4922 11.8867 76.4336 11.6133 76.332 11.3477C76.2344 11.082 76.0781 10.8633 75.8633 10.6914C75.6484 10.5195 75.3555 10.4336 74.9844 10.4336C74.7383 10.4336 74.5117 10.4863 74.3047 10.5918C74.0977 10.6934 73.9199 10.8457 73.7715 11.0488C73.623 11.252 73.5078 11.5 73.4258 11.793C73.3438 12.0859 73.3027 12.4238 73.3027 12.8066V13.0527C73.3027 13.3535 73.3438 13.6367 73.4258 13.9023C73.5117 14.1641 73.6348 14.3945 73.7949 14.5938C73.959 14.793 74.1562 14.9492 74.3867 15.0625C74.6211 15.1758 74.8867 15.2324 75.1836 15.2324C75.5664 15.2324 75.8906 15.1543 76.1562 14.998C76.4219 14.8418 76.6543 14.6328 76.8535 14.3711L77.5098 14.8926C77.373 15.0996 77.1992 15.2969 76.9883 15.4844C76.7773 15.6719 76.5176 15.8242 76.209 15.9414C75.9043 16.0586 75.543 16.1172 75.125 16.1172ZM82.8535 14.7695V7H83.9434V16H82.9473L82.8535 14.7695ZM78.5879 12.9004V12.7773C78.5879 12.293 78.6465 11.8535 78.7637 11.459C78.8848 11.0605 79.0547 10.7188 79.2734 10.4336C79.4961 10.1484 79.7598 9.92969 80.0645 9.77734C80.373 9.62109 80.7168 9.54297 81.0957 9.54297C81.4941 9.54297 81.8418 9.61328 82.1387 9.75391C82.4395 9.89062 82.6934 10.0918 82.9004 10.3574C83.1113 10.6191 83.2773 10.9355 83.3984 11.3066C83.5195 11.6777 83.6035 12.0977 83.6504 12.5664V13.1055C83.6074 13.5703 83.5234 13.9883 83.3984 14.3594C83.2773 14.7305 83.1113 15.0469 82.9004 15.3086C82.6934 15.5703 82.4395 15.7715 82.1387 15.9121C81.8379 16.0488 81.4863 16.1172 81.084 16.1172C80.7129 16.1172 80.373 16.0371 80.0645 15.877C79.7598 15.7168 79.4961 15.4922 79.2734 15.2031C79.0547 14.9141 78.8848 14.5742 78.7637 14.1836C78.6465 13.7891 78.5879 13.3613 78.5879 12.9004ZM79.6777 12.7773V12.9004C79.6777 13.2168 79.709 13.5137 79.7715 13.791C79.8379 14.0684 79.9395 14.3125 80.0762 14.5234C80.2129 14.7344 80.3867 14.9004 80.5977 15.0215C80.8086 15.1387 81.0605 15.1973 81.3535 15.1973C81.7129 15.1973 82.0078 15.1211 82.2383 14.9688C82.4727 14.8164 82.6602 14.6152 82.8008 14.3652C82.9414 14.1152 83.0508 13.8438 83.1289 13.5508V12.1387C83.082 11.9238 83.0137 11.7168 82.9238 11.5176C82.8379 11.3145 82.7246 11.1348 82.584 10.9785C82.4473 10.8184 82.2773 10.6914 82.0742 10.5977C81.875 10.5039 81.6387 10.457 81.3652 10.457C81.0684 10.457 80.8125 10.5195 80.5977 10.6445C80.3867 10.7656 80.2129 10.9336 80.0762 11.1484C79.9395 11.3594 79.8379 11.6055 79.7715 11.8867C79.709 12.1641 79.6777 12.4609 79.6777 12.7773ZM88.6016 7H89.6914V14.7695L89.5977 16H88.6016V7ZM93.9746 12.7773V12.9004C93.9746 13.3613 93.9199 13.7891 93.8105 14.1836C93.7012 14.5742 93.541 14.9141 93.3301 15.2031C93.1191 15.4922 92.8613 15.7168 92.5566 15.877C92.252 16.0371 91.9023 16.1172 91.5078 16.1172C91.1055 16.1172 90.752 16.0488 90.4473 15.9121C90.1465 15.7715 89.8926 15.5703 89.6855 15.3086C89.4785 15.0469 89.3125 14.7305 89.1875 14.3594C89.0664 13.9883 88.9824 13.5703 88.9355 13.1055V12.5664C88.9824 12.0977 89.0664 11.6777 89.1875 11.3066C89.3125 10.9355 89.4785 10.6191 89.6855 10.3574C89.8926 10.0918 90.1465 9.89062 90.4473 9.75391C90.748 9.61328 91.0977 9.54297 91.4961 9.54297C91.8945 9.54297 92.248 9.62109 92.5566 9.77734C92.8652 9.92969 93.123 10.1484 93.3301 10.4336C93.541 10.7188 93.7012 11.0605 93.8105 11.459C93.9199 11.8535 93.9746 12.293 93.9746 12.7773ZM92.8848 12.9004V12.7773C92.8848 12.4609 92.8555 12.1641 92.7969 11.8867C92.7383 11.6055 92.6445 11.3594 92.5156 11.1484C92.3867 10.9336 92.2168 10.7656 92.0059 10.6445C91.7949 10.5195 91.5352 10.457 91.2266 10.457C90.9531 10.457 90.7148 10.5039 90.5117 10.5977C90.3125 10.6914 90.1426 10.8184 90.002 10.9785C89.8613 11.1348 89.7461 11.3145 89.6562 11.5176C89.5703 11.7168 89.5059 11.9238 89.4629 12.1387V13.5508C89.5254 13.8242 89.627 14.0879 89.7676 14.3418C89.9121 14.5918 90.1035 14.7969 90.3418 14.957C90.584 15.1172 90.8828 15.1973 91.2383 15.1973C91.5312 15.1973 91.7812 15.1387 91.9883 15.0215C92.1992 14.9004 92.3691 14.7344 92.498 14.5234C92.6309 14.3125 92.7285 14.0684 92.791 13.791C92.8535 13.5137 92.8848 13.2168 92.8848 12.9004ZM97.0566 15.3438L98.8203 9.66016H99.9805L97.4375 16.9785C97.3789 17.1348 97.3008 17.3027 97.2031 17.4824C97.1094 17.666 96.9883 17.8398 96.8398 18.0039C96.6914 18.168 96.5117 18.3008 96.3008 18.4023C96.0938 18.5078 95.8457 18.5605 95.5566 18.5605C95.4707 18.5605 95.3613 18.5488 95.2285 18.5254C95.0957 18.502 95.002 18.4824 94.9473 18.4668L94.9414 17.5879C94.9727 17.5918 95.0215 17.5957 95.0879 17.5996C95.1582 17.6074 95.207 17.6113 95.2344 17.6113C95.4805 17.6113 95.6895 17.5781 95.8613 17.5117C96.0332 17.4492 96.1777 17.3418 96.2949 17.1895C96.416 17.041 96.5195 16.8359 96.6055 16.5742L97.0566 15.3438ZM95.7617 9.66016L97.4082 14.582L97.6895 15.7246L96.9102 16.123L94.5781 9.66016H95.7617ZM107.246 12.6543H104.967V11.7344H107.246C107.688 11.7344 108.045 11.6641 108.318 11.5234C108.592 11.3828 108.791 11.1875 108.916 10.9375C109.045 10.6875 109.109 10.4023 109.109 10.082C109.109 9.78906 109.045 9.51367 108.916 9.25586C108.791 8.99805 108.592 8.79102 108.318 8.63477C108.045 8.47461 107.688 8.39453 107.246 8.39453H105.23V16H104.1V7.46875H107.246C107.891 7.46875 108.436 7.58008 108.881 7.80273C109.326 8.02539 109.664 8.33398 109.895 8.72852C110.125 9.11914 110.24 9.56641 110.24 10.0703C110.24 10.6172 110.125 11.084 109.895 11.4707C109.664 11.8574 109.326 12.1523 108.881 12.3555C108.436 12.5547 107.891 12.6543 107.246 12.6543ZM112.684 7V16H111.594V7H112.684ZM117.055 16.1172C116.613 16.1172 116.213 16.043 115.854 15.8945C115.498 15.7422 115.191 15.5293 114.934 15.2559C114.68 14.9824 114.484 14.6582 114.348 14.2832C114.211 13.9082 114.143 13.498 114.143 13.0527V12.8066C114.143 12.291 114.219 11.832 114.371 11.4297C114.523 11.0234 114.73 10.6797 114.992 10.3984C115.254 10.1172 115.551 9.9043 115.883 9.75977C116.215 9.61523 116.559 9.54297 116.914 9.54297C117.367 9.54297 117.758 9.62109 118.086 9.77734C118.418 9.93359 118.689 10.1523 118.9 10.4336C119.111 10.7109 119.268 11.0391 119.369 11.418C119.471 11.793 119.521 12.2031 119.521 12.6484V13.1348H114.787V12.25H118.438V12.168C118.422 11.8867 118.363 11.6133 118.262 11.3477C118.164 11.082 118.008 10.8633 117.793 10.6914C117.578 10.5195 117.285 10.4336 116.914 10.4336C116.668 10.4336 116.441 10.4863 116.234 10.5918C116.027 10.6934 115.85 10.8457 115.701 11.0488C115.553 11.252 115.438 11.5 115.355 11.793C115.273 12.0859 115.232 12.4238 115.232 12.8066V13.0527C115.232 13.3535 115.273 13.6367 115.355 13.9023C115.441 14.1641 115.564 14.3945 115.725 14.5938C115.889 14.793 116.086 14.9492 116.316 15.0625C116.551 15.1758 116.816 15.2324 117.113 15.2324C117.496 15.2324 117.82 15.1543 118.086 14.998C118.352 14.8418 118.584 14.6328 118.783 14.3711L119.439 14.8926C119.303 15.0996 119.129 15.2969 118.918 15.4844C118.707 15.6719 118.447 15.8242 118.139 15.9414C117.834 16.0586 117.473 16.1172 117.055 16.1172ZM121.871 10.6562V16H120.787V9.66016H121.842L121.871 10.6562ZM123.852 9.625L123.846 10.6328C123.756 10.6133 123.67 10.6016 123.588 10.5977C123.51 10.5898 123.42 10.5859 123.318 10.5859C123.068 10.5859 122.848 10.625 122.656 10.7031C122.465 10.7812 122.303 10.8906 122.17 11.0312C122.037 11.1719 121.932 11.3398 121.854 11.5352C121.779 11.7266 121.73 11.9375 121.707 12.168L121.402 12.3438C121.402 11.9609 121.439 11.6016 121.514 11.2656C121.592 10.9297 121.711 10.6328 121.871 10.375C122.031 10.1133 122.234 9.91016 122.48 9.76562C122.73 9.61719 123.027 9.54297 123.371 9.54297C123.449 9.54297 123.539 9.55273 123.641 9.57227C123.742 9.58789 123.812 9.60547 123.852 9.625ZM128.732 14.7695V7H129.822V16H128.826L128.732 14.7695ZM124.467 12.9004V12.7773C124.467 12.293 124.525 11.8535 124.643 11.459C124.764 11.0605 124.934 10.7188 125.152 10.4336C125.375 10.1484 125.639 9.92969 125.943 9.77734C126.252 9.62109 126.596 9.54297 126.975 9.54297C127.373 9.54297 127.721 9.61328 128.018 9.75391C128.318 9.89062 128.572 10.0918 128.779 10.3574C128.99 10.6191 129.156 10.9355 129.277 11.3066C129.398 11.6777 129.482 12.0977 129.529 12.5664V13.1055C129.486 13.5703 129.402 13.9883 129.277 14.3594C129.156 14.7305 128.99 15.0469 128.779 15.3086C128.572 15.5703 128.318 15.7715 128.018 15.9121C127.717 16.0488 127.365 16.1172 126.963 16.1172C126.592 16.1172 126.252 16.0371 125.943 15.877C125.639 15.7168 125.375 15.4922 125.152 15.2031C124.934 14.9141 124.764 14.5742 124.643 14.1836C124.525 13.7891 124.467 13.3613 124.467 12.9004ZM125.557 12.7773V12.9004C125.557 13.2168 125.588 13.5137 125.65 13.791C125.717 14.0684 125.818 14.3125 125.955 14.5234C126.092 14.7344 126.266 14.9004 126.477 15.0215C126.688 15.1387 126.939 15.1973 127.232 15.1973C127.592 15.1973 127.887 15.1211 128.117 14.9688C128.352 14.8164 128.539 14.6152 128.68 14.3652C128.82 14.1152 128.93 13.8438 129.008 13.5508V12.1387C128.961 11.9238 128.893 11.7168 128.803 11.5176C128.717 11.3145 128.604 11.1348 128.463 10.9785C128.326 10.8184 128.156 10.6914 127.953 10.5977C127.754 10.5039 127.518 10.457 127.244 10.457C126.947 10.457 126.691 10.5195 126.477 10.6445C126.266 10.7656 126.092 10.9336 125.955 11.1484C125.818 11.3594 125.717 11.6055 125.65 11.8867C125.588 12.1641 125.557 12.4609 125.557 12.7773ZM133.291 15.3438L135.055 9.66016H136.215L133.672 16.9785C133.613 17.1348 133.535 17.3027 133.438 17.4824C133.344 17.666 133.223 17.8398 133.074 18.0039C132.926 18.168 132.746 18.3008 132.535 18.4023C132.328 18.5078 132.08 18.5605 131.791 18.5605C131.705 18.5605 131.596 18.5488 131.463 18.5254C131.33 18.502 131.236 18.4824 131.182 18.4668L131.176 17.5879C131.207 17.5918 131.256 17.5957 131.322 17.5996C131.393 17.6074 131.441 17.6113 131.469 17.6113C131.715 17.6113 131.924 17.5781 132.096 17.5117C132.268 17.4492 132.412 17.3418 132.529 17.1895C132.65 17.041 132.754 16.8359 132.84 16.5742L133.291 15.3438ZM131.996 9.66016L133.643 14.582L133.924 15.7246L133.145 16.123L130.812 9.66016H131.996Z" fill="#BDBDBD"/>
<path d="M103.109 17.1719H136.361V17.7578H103.109V17.1719Z" fill="#BDBDBD"/>
<defs>
<linearGradient id="paint0_linear_1_2161" x1="-4.48276e-08" y1="-0.00010333" x2="31.666" y2="4.69006" gradientUnits="userSpaceOnUse">
<stop stop-color="#2D8DFE"/>
<stop offset="1" stop-color="#0E77F1"/>
</linearGradient>
<linearGradient id="paint1_linear_1_2161" x1="-0.000142672" y1="-0.000104165" x2="31.6659" y2="4.69006" gradientUnits="userSpaceOnUse">
<stop stop-color="#2D8DFE"/>
<stop offset="1" stop-color="#0E77F1"/>
</linearGradient>
<linearGradient id="paint2_linear_1_2161" x1="0.000279681" y1="9.87873e-05" x2="31.6663" y2="4.69026" gradientUnits="userSpaceOnUse">
<stop stop-color="#2D8DFE"/>
<stop offset="1" stop-color="#0E77F1"/>
</linearGradient>
<linearGradient id="paint3_linear_1_2161" x1="-0.000133914" y1="-9.87373e-05" x2="31.6659" y2="4.69006" gradientUnits="userSpaceOnUse">
<stop stop-color="#2D8DFE"/>
<stop offset="1" stop-color="#0E77F1"/>
</linearGradient>
<linearGradient id="paint4_linear_1_2161" x1="9.92209e-05" y1="5.58736e-07" x2="31.6661" y2="4.69016" gradientUnits="userSpaceOnUse">
<stop stop-color="#2D8DFE"/>
<stop offset="1" stop-color="#0E77F1"/>
</linearGradient>
</defs>
</svg>
